<svg width="800" height="800" viewBox="0 0 800 800" fill="none" xmlns="http://www.w3.org/2000/svg">
<rect width="800" height="800" rx="200" fill="#E7150D"/>
<path d="M527.46 573.548C510.073 573.548 494.568 570.209 480.948 563.531C467.328 557.143 456.605 547.562 448.781 534.786C441.246 522.011 437.479 506.332 437.479 487.749L437.479 449.859C437.479 441.729 434.726 435.196 429.22 430.26C424.004 425.034 416.904 421.985 407.92 421.114L407.92 378.868C416.904 378.287 424.004 375.238 429.22 369.722C434.726 363.915 437.479 357.237 437.479 349.688L437.479 312.668C437.479 294.376 441.391 278.987 449.216 266.502C457.04 253.727 467.762 244 481.383 237.322C495.003 230.353 510.362 226.869 527.46 226.869L547.891 226.869L547.891 273.47H535.285C523.693 273.47 514.419 277.245 507.464 284.794C500.509 292.343 497.032 303.086 497.032 317.023L497.032 344.026C497.032 361.447 492.105 375.384 482.252 385.836C472.689 395.999 460.518 403.112 445.738 407.177L446.173 391.934C460.952 396.289 473.124 403.838 482.687 414.581C492.25 425.034 497.032 438.68 497.032 455.52L497.032 483.394C497.032 497.621 500.509 508.509 507.464 516.059C514.419 523.317 523.693 526.947 535.285 526.947H547.891L547.891 573.548H527.46Z" fill="white"/>
<path d="M253 573.55L253 226L312.118 226L312.118 573.55L253 573.55ZM272.996 573.55L272.996 526.949L372.106 526.949L372.106 573.55L272.996 573.55ZM272.996 272.601L272.996 226L372.106 226L372.106 272.601L272.996 272.601Z" fill="white"/>
</svg>