<svg width="140" height="32" viewBox="0 0 140 32" fill="none" xmlns="http://www.w3.org/2000/svg">
<path d="M0 31.9752V0H9.74697V4.01742H5.08967V27.9451H9.74697V31.9752H0Z" fill="#FF3636"/>
<path d="M11.6278 16.095V13.5556C13.0526 13.5556 14.0409 13.2651 14.5927 12.6839C15.1444 12.1028 15.4203 11.1637 15.4203 9.86669V7.07471C15.4203 5.51659 15.6304 4.27009 16.0504 3.33522C16.4786 2.39192 17.0716 1.68024 17.8293 1.20017C18.5952 0.720104 19.5011 0.400057 20.5471 0.240034C21.593 0.0800112 22.7378 0 23.9814 0V4.01742C23.0096 4.01742 22.2683 4.14797 21.7577 4.40906C21.2553 4.66173 20.9136 5.05757 20.7324 5.5966C20.5512 6.1272 20.4606 6.80098 20.4606 7.61794V11.3069C20.4606 11.947 20.3453 12.5576 20.1147 13.1387C19.8841 13.7115 19.4558 14.221 18.8299 14.6674C18.204 15.1053 17.3104 15.4549 16.1492 15.716C14.988 15.9686 13.4808 16.095 11.6278 16.095ZM23.9814 31.9752C22.7378 31.9752 21.593 31.8951 20.5471 31.7351C19.5011 31.5751 18.5952 31.255 17.8293 30.775C17.0716 30.2949 16.4786 29.5832 16.0504 28.6399C15.6304 27.7051 15.4203 26.4586 15.4203 24.9004V22.0958C15.4203 20.7988 15.1444 19.8597 14.5927 19.2786C14.0409 18.6974 13.0526 18.4069 11.6278 18.4069V15.8676C13.4808 15.8676 14.988 15.9981 16.1492 16.2592C17.3104 16.5119 18.204 16.8614 18.8299 17.3078C19.4558 17.7457 19.8841 18.2553 20.1147 18.8364C20.3453 19.4091 20.4606 20.0197 20.4606 20.6683V24.3572C20.4606 25.1657 20.5512 25.8353 20.7324 26.3659C20.9136 26.9049 21.2553 27.3008 21.7577 27.5535C22.2683 27.8146 23.0096 27.9451 23.9814 27.9451V31.9752ZM11.6278 18.4069V13.5556H16.0627V18.4069H11.6278Z" fill="#FF3636"/>
<path d="M35.1113 25.3317V23.2778H39.6984V10.6804H35.1113V8.62649H42.1974V12.3578C42.6994 11.0798 43.4525 10.0985 44.4567 9.41382C45.4608 8.70636 46.6247 8.35263 47.9484 8.35263C48.4733 8.35263 48.9411 8.39827 49.3519 8.48956C49.7627 8.55802 50.2533 8.68354 50.8239 8.86611V11.1597C50.2533 10.9771 49.7056 10.8288 49.1807 10.7146C48.6786 10.6005 48.1766 10.5435 47.6745 10.5435C46.4421 10.5435 45.3467 10.863 44.3882 11.502C43.4297 12.141 42.6994 13.0538 42.1974 14.2406V23.2778H47.0583V25.3317H35.1113Z" fill="black"/>
<path d="M60.7378 25.6741C59.1403 25.6741 57.7025 25.2975 56.4245 24.5444C55.1466 23.7685 54.131 22.7301 53.3779 21.4293C52.6476 20.1056 52.2825 18.6223 52.2825 16.9791C52.2825 15.336 52.6362 13.864 53.3437 12.5632C54.0511 11.2624 55.0096 10.2354 56.2192 9.48229C57.4515 8.72918 58.8208 8.35263 60.327 8.35263C61.9017 8.35263 63.3052 8.72918 64.5376 9.48229C65.7699 10.2126 66.7398 11.2167 67.4473 12.4947C68.1547 13.7499 68.5085 15.1762 68.5085 16.7737V17.5268H54.7129C54.8042 18.6679 55.1237 19.6949 55.6714 20.6077C56.2192 21.4978 56.938 22.2052 57.8281 22.7301C58.7409 23.2322 59.7451 23.4832 60.8405 23.4832C61.8218 23.4832 62.7347 23.3006 63.5791 22.9355C64.4463 22.5475 65.1651 22.0226 65.7357 21.3608L67.4815 22.9013C66.5915 23.8141 65.5759 24.5102 64.4349 24.9894C63.2938 25.4459 62.0614 25.6741 60.7378 25.6741ZM54.7814 15.6783H66.0438C65.9068 14.6742 65.5645 13.7841 65.0168 13.0082C64.4919 12.2323 63.8187 11.6275 62.9971 11.1939C62.1984 10.7375 61.2969 10.5093 60.2928 10.5093C59.3571 10.5093 58.5013 10.7261 57.7254 11.1597C56.9494 11.5933 56.299 12.198 55.7741 12.974C55.2721 13.7499 54.9412 14.6513 54.7814 15.6783Z" fill="black"/>
<path d="M75.5811 25.3317V10.6804H69.8644V8.62649H75.5811V5.27174C75.5811 1.75725 77.6008 0 81.6402 0C82.3249 0 83.0095 0.0684644 83.6941 0.205392C84.4016 0.34232 85.0977 0.536302 85.7823 0.787338V3.11512C84.9379 2.7728 84.1962 2.54458 83.5572 2.43048C82.9182 2.29355 82.1993 2.22509 81.4006 2.22509C80.328 2.22509 79.5064 2.49894 78.9359 3.04666C78.3654 3.57155 78.0801 4.45017 78.0801 5.68253V8.62649H85.7823V10.6804H78.0801V25.3317H75.5811Z" fill="black"/>
<path d="M95.0801 25.6741C93.8705 25.6741 92.7865 25.4573 91.828 25.0237C90.8923 24.5901 90.162 23.9967 89.6372 23.2436C89.1123 22.4677 88.8498 21.5776 88.8498 20.5735C88.8498 19.5693 89.1123 18.6907 89.6372 17.9376C90.1849 17.1845 90.938 16.6026 91.8965 16.1918C92.8778 15.781 94.0075 15.5756 95.2855 15.5756C96.2896 15.5756 97.2253 15.6783 98.0925 15.8837C98.9597 16.0663 99.7813 16.3858 100.557 16.8422V14.9252C100.557 13.4418 100.181 12.3236 99.4275 11.5704C98.6744 10.8173 97.5562 10.4408 96.0728 10.4408C95.2284 10.4408 94.384 10.5663 93.5396 10.8173C92.6952 11.0456 91.7481 11.4563 90.6984 12.0497L89.6714 10.1669C90.8809 9.50511 92.0334 9.03727 93.1288 8.76341C94.2243 8.48956 95.3083 8.35263 96.3809 8.35263C98.5033 8.35263 100.135 8.88893 101.276 9.96154C102.44 11.0341 103.022 12.5746 103.022 14.5829V25.3317H100.557V23.4147C99.7813 24.1907 98.9369 24.7612 98.024 25.1264C97.134 25.4915 96.1527 25.6741 95.0801 25.6741ZM91.2461 20.505C91.2461 21.4863 91.6454 22.2737 92.4442 22.867C93.2429 23.4604 94.2927 23.7571 95.5935 23.7571C96.5749 23.7571 97.4649 23.6087 98.2636 23.3121C99.0852 22.9926 99.8497 22.4905 100.557 21.8058V18.588C99.8497 18.1544 99.0966 17.8463 98.2979 17.6638C97.4991 17.4812 96.6205 17.3899 95.662 17.3899C94.3384 17.3899 93.2658 17.6752 92.4442 18.2457C91.6454 18.8162 91.2461 19.5693 91.2461 20.505Z" fill="black"/>
<path d="M114.99 25.6741C113.415 25.6741 111.989 25.2975 110.711 24.5444C109.456 23.7685 108.451 22.7301 107.698 21.4293C106.968 20.1285 106.603 18.6565 106.603 17.0133C106.603 15.3702 106.968 13.8982 107.698 12.5974C108.451 11.2738 109.456 10.2354 110.711 9.48229C111.989 8.72918 113.415 8.35263 114.99 8.35263C116.542 8.35263 117.945 8.69495 119.2 9.37959C120.455 10.0642 121.448 10.9885 122.179 12.1524L120.159 13.419C119.634 12.5518 118.915 11.8671 118.002 11.3651C117.112 10.8402 116.108 10.5777 114.99 10.5777C113.849 10.5777 112.833 10.863 111.943 11.4335C111.053 11.9812 110.346 12.7343 109.821 13.6928C109.319 14.6513 109.068 15.7582 109.068 17.0133C109.068 18.2457 109.319 19.3525 109.821 20.3339C110.346 21.2924 111.053 22.0569 111.943 22.6274C112.833 23.1751 113.849 23.449 114.99 23.449C116.108 23.449 117.112 23.1979 118.002 22.6959C118.915 22.171 119.634 21.4749 120.159 20.6077L122.179 21.8743C121.448 23.0382 120.455 23.9625 119.2 24.6471C117.945 25.3317 116.542 25.6741 114.99 25.6741Z" fill="black"/>
<path d="M135.584 25.6741C133.713 25.6741 132.275 25.2747 131.271 24.4759C130.29 23.6544 129.799 22.4677 129.799 20.9158V10.6804H124.082V8.62649H129.799V4.03939L132.298 3.45744V8.62649H140V10.6804H132.298V20.505C132.298 21.5548 132.583 22.3079 133.154 22.7643C133.724 23.2208 134.546 23.449 135.618 23.449C136.28 23.449 136.965 23.3805 137.672 23.2436C138.38 23.1067 139.156 22.8784 140 22.5589V24.8183C139.247 25.0921 138.505 25.2975 137.775 25.4344C137.045 25.5942 136.314 25.6741 135.584 25.6741Z" fill="black"/>
</svg>
