<svg width="1440" height="745" viewBox="0 0 1440 745" fill="none" xmlns="http://www.w3.org/2000/svg">
<mask id="mask0_40_20" style="mask-type:alpha" maskUnits="userSpaceOnUse" x="0" y="0" width="1440" height="745">
<rect width="1440" height="745" fill="#D9D9D9"/>
</mask>
<g mask="url(#mask0_40_20)">
<g opacity="0.08">
<path d="M125.5 415.358C125.021 348.234 203.46 215.136 521.053 219.739C918.045 225.492 1037.43 267.205 1187.02 88.8467C1336.61 -89.5119 1404.22 -128.348 1612.78 -57.8676" stroke="url(#paint0_linear_40_20)"/>
<path d="M579.034 764.198C578.745 723.775 625.982 643.622 817.242 646.394C1056.32 649.858 1128.21 674.979 1218.3 567.568C1308.38 460.158 1349.1 436.771 1474.7 479.215" stroke="url(#paint1_linear_40_20)"/>
<path d="M134.393 422.198C133.917 355.597 211.745 223.538 526.861 228.105C920.756 233.813 1039.21 275.201 1187.63 98.2334C1336.06 -78.734 1403.13 -117.267 1610.07 -47.3366" stroke="url(#paint2_linear_40_20)"/>
<path d="M143.285 429.038C142.813 362.961 220.029 231.939 532.668 236.47C923.467 242.134 1040.99 283.196 1188.25 107.62C1335.5 -67.9561 1402.05 -106.186 1607.36 -36.8055" stroke="url(#paint3_linear_40_20)"/>
<path d="M152.178 435.878C151.71 370.324 228.314 240.341 538.476 244.836C926.178 250.455 1042.77 291.192 1188.86 117.007C1334.95 -57.1784 1400.97 -95.1057 1604.66 -26.2745" stroke="url(#paint4_linear_40_20)"/>
<path d="M161.071 442.718C160.607 377.688 236.599 248.743 544.284 253.202C928.89 258.776 1044.55 299.187 1189.47 126.393C1334.4 -46.4005 1399.89 -84.025 1601.95 -15.7435" stroke="url(#paint5_linear_40_20)"/>
<path d="M169.964 449.558C169.503 385.051 244.884 257.144 550.091 261.568C931.601 267.097 1046.33 307.183 1190.09 135.78C1333.84 -35.6227 1398.81 -72.9443 1599.24 -5.21251" stroke="url(#paint6_linear_40_20)"/>
<path d="M178.857 456.398C178.4 392.415 253.168 265.546 555.899 269.933C934.312 275.418 1048.11 315.179 1190.7 145.167C1333.29 -24.8448 1397.73 -61.8635 1596.53 5.31857" stroke="url(#paint7_linear_40_20)"/>
<path d="M187.75 463.238C187.296 399.779 261.453 273.948 561.706 278.299C937.023 283.739 1049.89 323.174 1191.31 154.554C1332.74 -14.0669 1396.65 -50.7827 1593.83 15.8496" stroke="url(#paint8_linear_40_20)"/>
<path d="M196.642 470.078C196.193 407.142 269.738 282.349 567.514 286.665C939.734 292.06 1051.67 331.17 1191.93 163.94C1332.18 -3.28913 1395.57 -39.702 1591.12 26.3806" stroke="url(#paint9_linear_40_20)"/>
<path d="M205.535 476.918C205.09 414.506 278.023 290.751 573.322 295.031C942.446 300.38 1053.45 339.165 1192.54 173.327C1331.63 7.48876 1394.49 -28.6212 1588.41 36.9117" stroke="url(#paint10_linear_40_20)"/>
<path d="M214.428 483.758C213.986 421.869 286.307 299.153 579.129 303.397C945.157 308.701 1055.23 347.161 1193.15 182.714C1331.08 18.2666 1393.41 -17.5404 1585.7 47.4427" stroke="url(#paint11_linear_40_20)"/>
<path d="M223.321 490.598C222.883 429.233 294.592 307.554 584.937 311.762C947.868 317.022 1057.01 355.156 1193.77 192.1C1330.52 29.0444 1392.33 -6.45969 1583 57.9737" stroke="url(#paint12_linear_40_20)"/>
<path d="M232.214 497.438C231.779 436.596 302.877 315.956 590.744 320.128C950.579 325.343 1058.79 363.152 1194.38 201.487C1329.97 39.8223 1391.25 4.62108 1580.29 68.5047" stroke="url(#paint13_linear_40_20)"/>
<path d="M241.107 504.278C240.676 443.96 311.162 324.358 596.552 328.494C953.29 333.664 1060.57 371.147 1194.99 210.874C1329.42 50.6001 1390.17 15.7018 1577.58 79.0358" stroke="url(#paint14_linear_40_20)"/>
<path d="M249.999 511.118C249.572 451.323 319.446 332.759 602.36 336.86C956.001 341.985 1062.35 379.143 1195.61 220.26C1328.86 61.3779 1389.08 26.7826 1574.87 89.5668" stroke="url(#paint15_linear_40_20)"/>
<path d="M258.892 517.958C258.469 458.687 327.731 341.161 608.167 345.225C958.713 350.306 1064.13 387.139 1196.22 229.647C1328.31 72.1558 1388 37.8633 1572.17 100.098" stroke="url(#paint16_linear_40_20)"/>
<path d="M267.785 524.798C267.365 466.051 336.016 349.563 613.975 353.591C961.424 358.627 1065.91 395.134 1196.83 239.034C1327.76 82.9337 1386.92 48.9441 1569.46 110.629" stroke="url(#paint17_linear_40_20)"/>
<path d="M276.678 531.638C276.262 473.414 344.301 357.965 619.783 361.957C964.135 366.948 1067.69 403.13 1197.45 248.421C1327.2 93.7115 1385.84 60.0248 1566.75 121.16" stroke="url(#paint18_linear_40_20)"/>
<path d="M285.57 538.478C285.158 480.778 352.585 366.366 625.59 370.323C966.846 375.269 1069.47 411.125 1198.06 257.807C1326.65 104.489 1384.76 71.1056 1564.04 131.691" stroke="url(#paint19_linear_40_20)"/>
<path d="M294.464 545.318C294.055 488.141 360.87 374.768 631.398 378.689C969.558 383.589 1071.25 419.121 1198.67 267.194C1326.1 115.267 1383.68 82.1863 1561.34 142.222" stroke="url(#paint20_linear_40_20)"/>
<path d="M303.356 552.158C302.952 495.505 369.155 383.17 637.206 387.054C972.269 391.91 1073.03 427.116 1199.29 276.581C1325.54 126.045 1382.6 93.2672 1558.63 152.753" stroke="url(#paint21_linear_40_20)"/>
<path d="M312.249 558.998C311.848 502.868 377.439 391.571 643.013 395.42C974.98 400.231 1074.81 435.112 1199.9 285.967C1324.99 136.823 1381.52 104.348 1555.92 163.284" stroke="url(#paint22_linear_40_20)"/>
<path d="M321.142 565.838C320.745 510.232 385.724 399.973 648.821 403.786C977.691 408.552 1076.59 443.107 1200.51 295.354C1324.43 147.601 1380.44 115.429 1553.21 173.815" stroke="url(#paint23_linear_40_20)"/>
<path d="M330.035 572.678C329.641 517.595 394.009 408.375 654.628 412.152C980.402 416.873 1078.37 451.103 1201.13 304.741C1323.88 158.379 1379.36 126.509 1550.51 184.346" stroke="url(#paint24_linear_40_20)"/>
<path d="M338.928 579.518C338.538 524.959 402.294 416.776 660.436 420.517C983.113 425.194 1080.15 459.098 1201.74 314.127C1323.33 169.156 1378.28 137.59 1547.8 194.877" stroke="url(#paint25_linear_40_20)"/>
<path d="M347.821 586.358C347.435 532.323 410.579 425.178 666.244 428.883C985.825 433.515 1081.93 467.094 1202.35 323.514C1322.77 179.934 1377.2 148.671 1545.09 205.408" stroke="url(#paint26_linear_40_20)"/>
<path d="M356.713 593.198C356.331 539.686 418.863 433.58 672.051 437.249C988.536 441.836 1083.71 475.09 1202.97 332.901C1322.22 190.712 1376.11 159.752 1542.38 215.939" stroke="url(#paint27_linear_40_20)"/>
<path d="M365.606 600.038C365.227 547.05 427.148 441.981 677.859 445.615C991.247 450.157 1085.49 483.085 1203.58 342.288C1321.67 201.49 1375.03 170.832 1539.68 226.47" stroke="url(#paint28_linear_40_20)"/>
<path d="M374.499 606.878C374.124 554.413 435.433 450.383 683.666 453.981C993.958 458.478 1087.27 491.081 1204.19 351.674C1321.11 212.268 1373.95 181.913 1536.97 237.001" stroke="url(#paint29_linear_40_20)"/>
<path d="M383.391 613.718C383.02 561.777 443.717 458.785 689.474 462.346C996.669 466.799 1089.05 499.076 1204.81 361.061C1320.56 223.046 1372.87 192.994 1534.26 247.532" stroke="url(#paint30_linear_40_20)"/>
<path d="M392.284 620.558C391.917 569.14 452.002 467.186 695.282 470.712C999.381 475.119 1090.83 507.072 1205.42 370.448C1320.01 233.823 1371.79 204.075 1531.55 258.063" stroke="url(#paint31_linear_40_20)"/>
<path d="M401.177 627.398C400.814 576.504 460.287 475.588 701.089 479.078C1002.09 483.44 1092.61 515.067 1206.03 379.834C1319.45 244.601 1370.71 215.155 1528.85 268.594" stroke="url(#paint32_linear_40_20)"/>
<path d="M410.07 634.238C409.71 583.867 468.572 483.99 706.897 487.444C1004.8 491.761 1094.39 523.063 1206.65 389.221C1318.9 255.379 1369.63 226.236 1526.14 279.125" stroke="url(#paint33_linear_40_20)"/>
<path d="M418.963 641.078C418.607 591.231 476.857 492.391 712.705 495.809C1007.51 500.082 1096.17 531.058 1207.26 398.608C1318.35 266.157 1368.55 237.317 1523.43 289.656" stroke="url(#paint34_linear_40_20)"/>
<path d="M427.856 647.918C427.503 598.595 485.141 500.793 718.512 504.175C1010.23 508.403 1097.95 539.054 1207.87 407.994C1317.79 276.935 1367.47 248.398 1520.72 300.187" stroke="url(#paint35_linear_40_20)"/>
<path d="M436.749 654.758C436.4 605.958 493.426 509.195 724.32 512.541C1012.94 516.724 1099.73 547.05 1208.49 417.381C1317.24 287.713 1366.39 259.478 1518.02 310.718" stroke="url(#paint36_linear_40_20)"/>
<path d="M445.641 661.598C445.296 613.322 501.711 517.596 730.127 520.907C1015.65 525.045 1101.51 555.045 1209.1 426.768C1316.69 298.491 1365.31 270.559 1515.31 321.249" stroke="url(#paint37_linear_40_20)"/>
<path d="M454.534 668.438C454.193 620.685 509.996 525.998 735.935 529.273C1018.36 533.366 1103.29 563.041 1209.71 436.155C1316.13 309.268 1364.23 281.64 1512.6 331.78" stroke="url(#paint38_linear_40_20)"/>
<path d="M463.427 675.278C463.09 628.049 518.281 534.4 741.743 537.638C1021.07 541.687 1105.07 571.036 1210.32 445.541C1315.58 320.046 1363.15 292.721 1509.89 342.311" stroke="url(#paint39_linear_40_20)"/>
<path d="M472.32 682.118C471.986 635.412 526.565 542.802 747.55 546.004C1023.78 550.008 1106.85 579.032 1210.94 454.928C1315.03 330.824 1362.06 303.801 1507.19 352.843" stroke="url(#paint40_linear_40_20)"/>
<path d="M481.213 688.958C480.883 642.776 534.85 551.203 753.358 554.37C1026.49 558.328 1108.63 587.027 1211.55 464.315C1314.47 341.602 1360.98 314.882 1504.48 363.374" stroke="url(#paint41_linear_40_20)"/>
<path d="M490.106 695.798C489.78 650.139 543.135 559.605 759.166 562.736C1029.2 566.649 1110.41 595.023 1212.16 473.701C1313.92 352.38 1359.9 325.963 1501.77 373.905" stroke="url(#paint42_linear_40_20)"/>
<path d="M498.998 702.638C498.676 657.503 551.419 568.007 764.973 571.102C1031.91 574.97 1112.19 603.019 1212.78 483.088C1313.36 363.158 1358.82 337.044 1499.06 384.436" stroke="url(#paint43_linear_40_20)"/>
<path d="M507.891 709.478C507.572 664.867 559.704 576.408 770.781 579.467C1034.63 583.291 1113.97 611.014 1213.39 492.475C1312.81 373.935 1357.74 348.124 1496.36 394.967" stroke="url(#paint44_linear_40_20)"/>
<path d="M516.784 716.318C516.469 672.23 567.989 584.81 776.588 587.833C1037.34 591.612 1115.75 619.01 1214 501.861C1312.26 384.713 1356.66 359.205 1493.65 405.498" stroke="url(#paint45_linear_40_20)"/>
<path d="M525.677 723.158C525.365 679.594 576.274 593.212 782.396 596.199C1040.05 599.933 1117.53 627.005 1214.62 511.248C1311.7 395.491 1355.58 370.286 1490.94 416.029" stroke="url(#paint46_linear_40_20)"/>
<path d="M534.57 729.998C534.262 686.957 584.558 601.613 788.204 604.565C1042.76 608.254 1119.31 635.001 1215.23 520.635C1311.15 406.269 1354.5 381.367 1488.23 426.56" stroke="url(#paint47_linear_40_20)"/>
<path d="M543.462 736.838C543.159 694.321 592.843 610.015 794.011 612.93C1045.47 616.575 1121.09 642.996 1215.84 530.022C1310.6 417.047 1353.42 392.448 1485.53 437.091" stroke="url(#paint48_linear_40_20)"/>
<path d="M552.355 743.678C552.055 701.684 601.128 618.417 799.819 621.296C1048.18 624.896 1122.87 650.992 1216.46 539.408C1310.04 427.825 1352.34 403.528 1482.82 447.622" stroke="url(#paint49_linear_40_20)"/>
<path d="M561.248 750.518C560.952 709.048 609.413 626.818 805.627 629.662C1050.89 633.217 1124.65 658.987 1217.07 548.795C1309.49 438.603 1351.26 414.609 1480.11 458.153" stroke="url(#paint50_linear_40_20)"/>
<path d="M570.141 757.358C569.848 716.412 617.697 635.22 811.434 638.028C1053.6 641.538 1126.43 666.983 1217.68 558.182C1308.94 449.38 1350.18 425.69 1477.4 468.684" stroke="url(#paint51_linear_40_20)"/>
</g>
</g>
<defs>
<linearGradient id="paint0_linear_40_20" x1="869.139" y1="-90.9988" x2="869.139" y2="415.358" gradientUnits="userSpaceOnUse">
<stop offset="0.015625" stop-opacity="0"/>
<stop offset="0.489583"/>
<stop offset="1" stop-opacity="0"/>
</linearGradient>
<linearGradient id="paint1_linear_40_20" x1="1026.86" y1="459.263" x2="1026.86" y2="764.198" gradientUnits="userSpaceOnUse">
<stop offset="0.015625" stop-opacity="0"/>
<stop offset="0.489583"/>
<stop offset="1" stop-opacity="0"/>
</linearGradient>
<linearGradient id="paint2_linear_40_20" x1="872.232" y1="-80.2094" x2="872.232" y2="422.198" gradientUnits="userSpaceOnUse">
<stop offset="0.015625" stop-opacity="0"/>
<stop offset="0.489583"/>
<stop offset="1" stop-opacity="0"/>
</linearGradient>
<linearGradient id="paint3_linear_40_20" x1="875.324" y1="-69.4199" x2="875.324" y2="429.038" gradientUnits="userSpaceOnUse">
<stop offset="0.015625" stop-opacity="0"/>
<stop offset="0.489583"/>
<stop offset="1" stop-opacity="0"/>
</linearGradient>
<linearGradient id="paint4_linear_40_20" x1="878.417" y1="-58.6305" x2="878.417" y2="435.878" gradientUnits="userSpaceOnUse">
<stop offset="0.015625" stop-opacity="0"/>
<stop offset="0.489583"/>
<stop offset="1" stop-opacity="0"/>
</linearGradient>
<linearGradient id="paint5_linear_40_20" x1="881.509" y1="-47.8411" x2="881.509" y2="442.718" gradientUnits="userSpaceOnUse">
<stop offset="0.015625" stop-opacity="0"/>
<stop offset="0.489583"/>
<stop offset="1" stop-opacity="0"/>
</linearGradient>
<linearGradient id="paint6_linear_40_20" x1="884.602" y1="-37.0516" x2="884.602" y2="449.558" gradientUnits="userSpaceOnUse">
<stop offset="0.015625" stop-opacity="0"/>
<stop offset="0.489583"/>
<stop offset="1" stop-opacity="0"/>
</linearGradient>
<linearGradient id="paint7_linear_40_20" x1="887.695" y1="-26.2621" x2="887.695" y2="456.398" gradientUnits="userSpaceOnUse">
<stop offset="0.015625" stop-opacity="0"/>
<stop offset="0.489583"/>
<stop offset="1" stop-opacity="0"/>
</linearGradient>
<linearGradient id="paint8_linear_40_20" x1="890.787" y1="-15.4727" x2="890.787" y2="463.238" gradientUnits="userSpaceOnUse">
<stop offset="0.015625" stop-opacity="0"/>
<stop offset="0.489583"/>
<stop offset="1" stop-opacity="0"/>
</linearGradient>
<linearGradient id="paint9_linear_40_20" x1="893.88" y1="-4.68329" x2="893.88" y2="470.078" gradientUnits="userSpaceOnUse">
<stop offset="0.015625" stop-opacity="0"/>
<stop offset="0.489583"/>
<stop offset="1" stop-opacity="0"/>
</linearGradient>
<linearGradient id="paint10_linear_40_20" x1="896.973" y1="6.1062" x2="896.973" y2="476.918" gradientUnits="userSpaceOnUse">
<stop offset="0.015625" stop-opacity="0"/>
<stop offset="0.489583"/>
<stop offset="1" stop-opacity="0"/>
</linearGradient>
<linearGradient id="paint11_linear_40_20" x1="900.065" y1="16.8956" x2="900.065" y2="483.758" gradientUnits="userSpaceOnUse">
<stop offset="0.015625" stop-opacity="0"/>
<stop offset="0.489583"/>
<stop offset="1" stop-opacity="0"/>
</linearGradient>
<linearGradient id="paint12_linear_40_20" x1="903.158" y1="27.6851" x2="903.158" y2="490.598" gradientUnits="userSpaceOnUse">
<stop offset="0.015625" stop-opacity="0"/>
<stop offset="0.489583"/>
<stop offset="1" stop-opacity="0"/>
</linearGradient>
<linearGradient id="paint13_linear_40_20" x1="906.25" y1="38.4745" x2="906.25" y2="497.438" gradientUnits="userSpaceOnUse">
<stop offset="0.015625" stop-opacity="0"/>
<stop offset="0.489583"/>
<stop offset="1" stop-opacity="0"/>
</linearGradient>
<linearGradient id="paint14_linear_40_20" x1="909.343" y1="49.2639" x2="909.343" y2="504.278" gradientUnits="userSpaceOnUse">
<stop offset="0.015625" stop-opacity="0"/>
<stop offset="0.489583"/>
<stop offset="1" stop-opacity="0"/>
</linearGradient>
<linearGradient id="paint15_linear_40_20" x1="912.436" y1="60.0534" x2="912.436" y2="511.118" gradientUnits="userSpaceOnUse">
<stop offset="0.015625" stop-opacity="0"/>
<stop offset="0.489583"/>
<stop offset="1" stop-opacity="0"/>
</linearGradient>
<linearGradient id="paint16_linear_40_20" x1="915.528" y1="70.8428" x2="915.528" y2="517.958" gradientUnits="userSpaceOnUse">
<stop offset="0.015625" stop-opacity="0"/>
<stop offset="0.489583"/>
<stop offset="1" stop-opacity="0"/>
</linearGradient>
<linearGradient id="paint17_linear_40_20" x1="918.621" y1="81.6323" x2="918.621" y2="524.798" gradientUnits="userSpaceOnUse">
<stop offset="0.015625" stop-opacity="0"/>
<stop offset="0.489583"/>
<stop offset="1" stop-opacity="0"/>
</linearGradient>
<linearGradient id="paint18_linear_40_20" x1="921.714" y1="92.4217" x2="921.714" y2="531.638" gradientUnits="userSpaceOnUse">
<stop offset="0.015625" stop-opacity="0"/>
<stop offset="0.489583"/>
<stop offset="1" stop-opacity="0"/>
</linearGradient>
<linearGradient id="paint19_linear_40_20" x1="924.806" y1="103.211" x2="924.806" y2="538.478" gradientUnits="userSpaceOnUse">
<stop offset="0.015625" stop-opacity="0"/>
<stop offset="0.489583"/>
<stop offset="1" stop-opacity="0"/>
</linearGradient>
<linearGradient id="paint20_linear_40_20" x1="927.899" y1="114.001" x2="927.899" y2="545.318" gradientUnits="userSpaceOnUse">
<stop offset="0.015625" stop-opacity="0"/>
<stop offset="0.489583"/>
<stop offset="1" stop-opacity="0"/>
</linearGradient>
<linearGradient id="paint21_linear_40_20" x1="930.992" y1="124.79" x2="930.992" y2="552.158" gradientUnits="userSpaceOnUse">
<stop offset="0.015625" stop-opacity="0"/>
<stop offset="0.489583"/>
<stop offset="1" stop-opacity="0"/>
</linearGradient>
<linearGradient id="paint22_linear_40_20" x1="934.084" y1="135.579" x2="934.084" y2="558.998" gradientUnits="userSpaceOnUse">
<stop offset="0.015625" stop-opacity="0"/>
<stop offset="0.489583"/>
<stop offset="1" stop-opacity="0"/>
</linearGradient>
<linearGradient id="paint23_linear_40_20" x1="937.177" y1="146.369" x2="937.177" y2="565.838" gradientUnits="userSpaceOnUse">
<stop offset="0.015625" stop-opacity="0"/>
<stop offset="0.489583"/>
<stop offset="1" stop-opacity="0"/>
</linearGradient>
<linearGradient id="paint24_linear_40_20" x1="940.27" y1="157.158" x2="940.27" y2="572.678" gradientUnits="userSpaceOnUse">
<stop offset="0.015625" stop-opacity="0"/>
<stop offset="0.489583"/>
<stop offset="1" stop-opacity="0"/>
</linearGradient>
<linearGradient id="paint25_linear_40_20" x1="943.362" y1="167.948" x2="943.362" y2="579.518" gradientUnits="userSpaceOnUse">
<stop offset="0.015625" stop-opacity="0"/>
<stop offset="0.489583"/>
<stop offset="1" stop-opacity="0"/>
</linearGradient>
<linearGradient id="paint26_linear_40_20" x1="946.455" y1="178.737" x2="946.455" y2="586.358" gradientUnits="userSpaceOnUse">
<stop offset="0.015625" stop-opacity="0"/>
<stop offset="0.489583"/>
<stop offset="1" stop-opacity="0"/>
</linearGradient>
<linearGradient id="paint27_linear_40_20" x1="949.548" y1="189.527" x2="949.548" y2="593.198" gradientUnits="userSpaceOnUse">
<stop offset="0.015625" stop-opacity="0"/>
<stop offset="0.489583"/>
<stop offset="1" stop-opacity="0"/>
</linearGradient>
<linearGradient id="paint28_linear_40_20" x1="952.64" y1="200.316" x2="952.64" y2="600.038" gradientUnits="userSpaceOnUse">
<stop offset="0.015625" stop-opacity="0"/>
<stop offset="0.489583"/>
<stop offset="1" stop-opacity="0"/>
</linearGradient>
<linearGradient id="paint29_linear_40_20" x1="955.733" y1="211.106" x2="955.733" y2="606.878" gradientUnits="userSpaceOnUse">
<stop offset="0.015625" stop-opacity="0"/>
<stop offset="0.489583"/>
<stop offset="1" stop-opacity="0"/>
</linearGradient>
<linearGradient id="paint30_linear_40_20" x1="958.825" y1="221.895" x2="958.825" y2="613.718" gradientUnits="userSpaceOnUse">
<stop offset="0.015625" stop-opacity="0"/>
<stop offset="0.489583"/>
<stop offset="1" stop-opacity="0"/>
</linearGradient>
<linearGradient id="paint31_linear_40_20" x1="961.918" y1="232.684" x2="961.918" y2="620.558" gradientUnits="userSpaceOnUse">
<stop offset="0.015625" stop-opacity="0"/>
<stop offset="0.489583"/>
<stop offset="1" stop-opacity="0"/>
</linearGradient>
<linearGradient id="paint32_linear_40_20" x1="965.011" y1="243.474" x2="965.011" y2="627.398" gradientUnits="userSpaceOnUse">
<stop offset="0.015625" stop-opacity="0"/>
<stop offset="0.489583"/>
<stop offset="1" stop-opacity="0"/>
</linearGradient>
<linearGradient id="paint33_linear_40_20" x1="968.104" y1="254.263" x2="968.104" y2="634.238" gradientUnits="userSpaceOnUse">
<stop offset="0.015625" stop-opacity="0"/>
<stop offset="0.489583"/>
<stop offset="1" stop-opacity="0"/>
</linearGradient>
<linearGradient id="paint34_linear_40_20" x1="971.196" y1="265.053" x2="971.196" y2="641.078" gradientUnits="userSpaceOnUse">
<stop offset="0.015625" stop-opacity="0"/>
<stop offset="0.489583"/>
<stop offset="1" stop-opacity="0"/>
</linearGradient>
<linearGradient id="paint35_linear_40_20" x1="974.289" y1="275.842" x2="974.289" y2="647.918" gradientUnits="userSpaceOnUse">
<stop offset="0.015625" stop-opacity="0"/>
<stop offset="0.489583"/>
<stop offset="1" stop-opacity="0"/>
</linearGradient>
<linearGradient id="paint36_linear_40_20" x1="977.382" y1="286.632" x2="977.382" y2="654.758" gradientUnits="userSpaceOnUse">
<stop offset="0.015625" stop-opacity="0"/>
<stop offset="0.489583"/>
<stop offset="1" stop-opacity="0"/>
</linearGradient>
<linearGradient id="paint37_linear_40_20" x1="980.474" y1="297.421" x2="980.474" y2="661.598" gradientUnits="userSpaceOnUse">
<stop offset="0.015625" stop-opacity="0"/>
<stop offset="0.489583"/>
<stop offset="1" stop-opacity="0"/>
</linearGradient>
<linearGradient id="paint38_linear_40_20" x1="983.567" y1="308.211" x2="983.567" y2="668.438" gradientUnits="userSpaceOnUse">
<stop offset="0.015625" stop-opacity="0"/>
<stop offset="0.489583"/>
<stop offset="1" stop-opacity="0"/>
</linearGradient>
<linearGradient id="paint39_linear_40_20" x1="986.66" y1="319" x2="986.66" y2="675.278" gradientUnits="userSpaceOnUse">
<stop offset="0.015625" stop-opacity="0"/>
<stop offset="0.489583"/>
<stop offset="1" stop-opacity="0"/>
</linearGradient>
<linearGradient id="paint40_linear_40_20" x1="989.752" y1="329.789" x2="989.752" y2="682.118" gradientUnits="userSpaceOnUse">
<stop offset="0.015625" stop-opacity="0"/>
<stop offset="0.489583"/>
<stop offset="1" stop-opacity="0"/>
</linearGradient>
<linearGradient id="paint41_linear_40_20" x1="992.845" y1="340.579" x2="992.845" y2="688.958" gradientUnits="userSpaceOnUse">
<stop offset="0.015625" stop-opacity="0"/>
<stop offset="0.489583"/>
<stop offset="1" stop-opacity="0"/>
</linearGradient>
<linearGradient id="paint42_linear_40_20" x1="995.938" y1="351.368" x2="995.938" y2="695.798" gradientUnits="userSpaceOnUse">
<stop offset="0.015625" stop-opacity="0"/>
<stop offset="0.489583"/>
<stop offset="1" stop-opacity="0"/>
</linearGradient>
<linearGradient id="paint43_linear_40_20" x1="999.03" y1="362.158" x2="999.03" y2="702.638" gradientUnits="userSpaceOnUse">
<stop offset="0.015625" stop-opacity="0"/>
<stop offset="0.489583"/>
<stop offset="1" stop-opacity="0"/>
</linearGradient>
<linearGradient id="paint44_linear_40_20" x1="1002.12" y1="372.947" x2="1002.12" y2="709.478" gradientUnits="userSpaceOnUse">
<stop offset="0.015625" stop-opacity="0"/>
<stop offset="0.489583"/>
<stop offset="1" stop-opacity="0"/>
</linearGradient>
<linearGradient id="paint45_linear_40_20" x1="1005.22" y1="383.737" x2="1005.22" y2="716.318" gradientUnits="userSpaceOnUse">
<stop offset="0.015625" stop-opacity="0"/>
<stop offset="0.489583"/>
<stop offset="1" stop-opacity="0"/>
</linearGradient>
<linearGradient id="paint46_linear_40_20" x1="1008.31" y1="394.526" x2="1008.31" y2="723.158" gradientUnits="userSpaceOnUse">
<stop offset="0.015625" stop-opacity="0"/>
<stop offset="0.489583"/>
<stop offset="1" stop-opacity="0"/>
</linearGradient>
<linearGradient id="paint47_linear_40_20" x1="1011.4" y1="405.316" x2="1011.4" y2="729.998" gradientUnits="userSpaceOnUse">
<stop offset="0.015625" stop-opacity="0"/>
<stop offset="0.489583"/>
<stop offset="1" stop-opacity="0"/>
</linearGradient>
<linearGradient id="paint48_linear_40_20" x1="1014.49" y1="416.105" x2="1014.49" y2="736.838" gradientUnits="userSpaceOnUse">
<stop offset="0.015625" stop-opacity="0"/>
<stop offset="0.489583"/>
<stop offset="1" stop-opacity="0"/>
</linearGradient>
<linearGradient id="paint49_linear_40_20" x1="1017.59" y1="426.894" x2="1017.59" y2="743.678" gradientUnits="userSpaceOnUse">
<stop offset="0.015625" stop-opacity="0"/>
<stop offset="0.489583"/>
<stop offset="1" stop-opacity="0"/>
</linearGradient>
<linearGradient id="paint50_linear_40_20" x1="1020.68" y1="437.684" x2="1020.68" y2="750.518" gradientUnits="userSpaceOnUse">
<stop offset="0.015625" stop-opacity="0"/>
<stop offset="0.489583"/>
<stop offset="1" stop-opacity="0"/>
</linearGradient>
<linearGradient id="paint51_linear_40_20" x1="1023.77" y1="448.473" x2="1023.77" y2="757.358" gradientUnits="userSpaceOnUse">
<stop offset="0.015625" stop-opacity="0"/>
<stop offset="0.489583"/>
<stop offset="1" stop-opacity="0"/>
</linearGradient>
</defs>
</svg>
